<svg xmlns="http://www.w3.org/2000/svg" viewBox="0 0 600 200" width="100%" height="100%"><defs><linearGradient id="greenGrad" x1="0%" y1="0%" x2="100%" y2="100%"><stop offset="0%" stop-color="#006a4e"/><stop offset="100%" stop-color="#004d38"/></linearGradient><linearGradient id="redGrad" x1="0%" y1="0%" x2="100%" y2="100%"><stop offset="0%" stop-color="#f42a41"/><stop offset="100%" stop-color="#c11224"/></linearGradient><filter id="dropShadow" x="-20%" y="-20%" width="140%" height="140%"><feDropShadow dx="0" dy="4" stdDeviation="4" flood-color="#000000" flood-opacity="0.15"/></filter></defs><rect width="600" height="200" fill="transparent"/><g transform="translate(30, 35)"><path d="M 25 45 L 105 45 Q 115 45 115 55 L 105 120 Q 103 130 93 130 L 37 130 Q 27 130 25 120 L 15 55 Q 15 45 25 45 Z" fill="url(#greenGrad)" filter="url(#dropShadow)"/><path d="M 45 45 C 45 -5, 85 -5, 85 45" fill="none" stroke="#222222" stroke-width="8" stroke-linecap="round"/><circle cx="65" cy="85" r="22" fill="url(#redGrad)"/><path d="M 58 73 L 58 97 M 58 73 C 70 73, 72 83, 62 85 M 58 85 C 72 85, 74 97, 62 97 L 58 97" fill="none" stroke="#ffffff" stroke-width="3" stroke-linecap="round" stroke-linejoin="round"/></g><text x="170" y="115" font-family="Arial, Helvetica, sans-serif" font-size="68" font-weight="900" fill="#111111" letter-spacing="-1.5">Bangla<tspan fill="#f42a41">Bazar</tspan></text><text x="175" y="145" font-family="Arial, Helvetica, sans-serif" font-size="15" font-weight="600" fill="#666666" letter-spacing="6.5">PREMIUM E-COMMERCE</text></svg>
